<svg width="170" height="170" xmlns="http://www.w3.org/2000/svg" xmlns:svg="http://www.w3.org/2000/svg">
	<g id="svg_1">
	 <ellipse class="pet-body" style="fill :#ffffff" ry="48.5" rx="53.5" id="svg_54" cy="79.98" cx="83.98" stroke-linecap="null" stroke-linejoin="null" stroke-dasharray="null" stroke-width="null" />
	 <path id="svg_28" d="m59.5933,129.46832c-0.7,2.2 -2.5,4.2 -5.4,6.1c-2.6,1.7 5,-2.1 7.1,5.7c0.9,3.4 -0.5,-6.5 8.8,-2.7c1.6,0.6 -3.4,-3.4 -4.4,-8.6c-1.9,-0.2 -4,-0.3 -6.1,-0.5z" fill="#F15A29"/>
	 <path id="svg_29" d="m115.1933,135.46832c-3,-2 -4.8,-4.1 -5.5,-6.4c-2,0.2 -4,0.2 -6,0.3c-0.8,5.5 -6.1,9.7 -4.5,9.1c9.4,-3.8 7.9,6.1 8.8,2.7c2.2,-7.8 9.9,-4 7.2,-5.7z" fill="#F15A29"/>
	 <path id="svg_30" fill="black" d="m163.8933,120.46832c-3.4,-6.4 -6.5,-12.8 -9.4,-19.4c-5.1,-11.6 -9.3,-23.7 -12,-36.1c-7,-31.6 -30.2,-47 -57.7,-47c-27.5,0 -50.7,15.4 -57.7,47c-2.7,12.4 -6.9,24.5 -12,36.1c-2.9,6.6 -6,13 -9.4,19.4c-0.2,0.4 -0.4,0.8 -0.3,1.2c0.2,0.8 1.2,1 2.1,1c8.4,-0.2 16.6,-3.4 23.1,-8.8c9.5,16.9 30.3,15.5 54.4,15.5c24.1,0 44.8,1.4 54.4,-15.5c6.4,5.4 14.7,8.5 23.1,8.8c0.8,0 1.9,-0.2 2.1,-1c-0.3,-0.4 -0.5,-0.8 -0.7,-1.2zm-79.2,-5.7c-26.4,0 -47.8,8.3 -47.8,-28.4c0,-33.5 21,-52.5 42,-38c3.5,2.4 8.1,2.4 11.6,0c21.1,-14.6 42,4.5 42,38c0,36.6 -21.4,28.4 -47.8,28.4z"/>
	 <path class="pet-eyes" fill="black" id="svg_32" d="m82.7933,75.66832c-0.2,4.9 -1.5,10.2 -4.9,14.7c-4.9,6.6 -12.8,7 -18.1,0.7c-5.9,-7 -7.2,-15 -3.7,-23.6c1.6,-3.9 4.5,-6.7 8.1,-8.7c5.8,-3.3 12.4,-1.1 16,4.9c1.6,3 2.6,7.3 2.6,12zm-13,3.6c-2.1,-0.1 -3.8,0.2 -5.4,0.7c-2.4,0.7 -3.6,2.2 -3.7,4.4c-0.1,2.3 0.8,4 2.9,5.1c4,2 10.1,-0.6 11.4,-4.9c0.8,-2.6 -0.6,-4.9 -3.4,-5.3c-0.7,-0.1 -1.5,0 -1.8,0zm-5.3,-4.3c-0.3,0.1 -0.9,0.1 -1.5,0.3c-0.9,0.4 -1.8,0.9 -1.5,2.1c0.4,1.3 1.5,1.4 2.6,1.2c0.5,-0.1 0.9,-0.4 1.3,-0.6c0.9,-0.4 1.8,-0.9 1.5,-2.1c-0.3,-1.1 -1.3,-0.9 -2.4,-0.9z"/>
	 <path class="pet-eyes" id="svg_33" d="m115.2933,75.66832c-0.2,4.9 -1.5,10.2 -4.9,14.7c-4.9,6.6 -12.8,7 -18.1,0.7c-5.9,-7 -7.2,-15 -3.7,-23.6c1.6,-3.9 4.5,-6.7 8.1,-8.7c5.8,-3.3 12.4,-1.1 16,4.9c1.6,3 2.6,7.3 2.6,12zm-13.1,3.6c-2.1,-0.1 -3.8,0.2 -5.4,0.7c-2.4,0.7 -3.6,2.2 -3.7,4.4c-0.1,2.3 0.8,4 2.9,5.1c4,2 10.1,-0.6 11.4,-4.9c0.8,-2.6 -0.6,-4.9 -3.4,-5.3c-0.7,-0.1 -1.4,0 -1.8,0zm-5.2,-4.3c-0.3,0.1 -0.9,0.1 -1.5,0.3c-0.9,0.4 -1.8,0.9 -1.5,2.1c0.4,1.3 1.5,1.4 2.6,1.2c0.5,-0.1 0.9,-0.4 1.3,-0.6c0.9,-0.4 1.8,-0.9 1.5,-2.1c-0.3,-1.1 -1.3,-0.9 -2.4,-0.9z"/>
	 <path id="svg_34" d="m92.0933,95.66832c0,0 0,0 0,0c-0.8,-0.8 -14.9,-1 -14.9,0.9c0.1,2.2 1.4,3 6.6,11.1c2.3,3.5 9,-11.1 8.3,-12z" fill="#F15A29"/>
	</g>
</svg>