<svg width="512.001" height="512.001" xmlns="http://www.w3.org/2000/svg" xmlns:svg="http://www.w3.org/2000/svg">
 <g>
  <title>Layer 1</title>
  <path d="m379.153,346.806c0,0 60.885,10.86 60.885,33.988c0,35.492 -209.383,64.526 -209.383,131.207l79.785,0c0,0 19.896,-29.039 76.898,-46.247c57.002,-17.208 111.852,-43.02 111.852,-85.503c0,-67.219 -85.503,-79.055 -85.503,-79.055l-32.977,-13.702l-1.557,59.312z" fill="#ffaad4" id="svg_1"/>
  <g opacity="0.29" id="svg_2">
   <path d="m412.76,301.196l-32.977,-13.702l-1.558,59.312c0,0 12.92,2.307 26.857,7.053c7.362,-12.98 19.209,-32.305 31.762,-46.445c-13.611,-4.764 -24.084,-6.218 -24.084,-6.218z" id="svg_3"/>
  </g>
  <circle cx="221.878" cy="209.065" r="209.065" fill="#ffffaa" id="svg_4"/>
  <path d="m330.452,221.422c-104.352,97.622 -228.043,124.29 -262.211,130.026c20.725,22.271 46.259,39.993 74.937,51.56c114.46,-38.608 165.053,-120.949 187.274,-181.586z" fill="#ffaad4" id="svg_5"/>
  <path d="m90.023,240.374c15.521,-121.897 131.856,-167.825 131.856,-167.825c-34.969,-23.029 -65.267,-14.927 -65.267,-14.927s-108.641,66.137 -111.155,196.378l44.566,-13.626z" fill="#aad4ff" opacity="0.54" id="svg_6"/>
  <path d="m214.282,177.991c8.53,-70.667 38.787,-93.42 38.787,-93.42l0,-21.474l-38.784,-6.857l-18.704,31.851c0,0 -42.286,55.9 -38.97,127.059l12.247,18.24l61.797,-24.323l-16.373,-31.076z" fill="#aaffaa" id="svg_7"/>
  <g id="svg_8">
   <path d="m337.471,137.909c-120.476,148.175 -299.028,171.714 -299.028,171.714l-20.057,-52.429c0,0 155.661,-9.959 276.137,-158.134l42.948,38.849z" fill="#aaffaa" id="svg_9"/>
   <path d="m430.687,203.458c-101.079,-198.498 -291.688,-186.452 -291.688,-186.452l0,0c-21.597,9.311 -41.311,22.152 -58.413,37.806l0,0c0,0 229.573,-28.487 344.602,197.409l1.107,0c2.922,-13.926 4.469,-28.358 4.469,-43.153c-0.001,-1.876 -0.028,-3.746 -0.077,-5.61z" fill="#aaffaa" id="svg_10"/>
   <path d="m190.32,414.94c180.603,-35.78 205.765,-212.328 205.765,-212.328c-17.135,-27.11 -47.37,-55.062 -47.37,-55.062s-11.395,189.778 -204.831,254.753c0,0 16.656,6.713 26.008,8.509l15.179,3.273l5.249,0.855z" fill="#aaffaa" opacity="0.55" id="svg_11"/>
   <path d="m244.343,346.637l22.572,-20.959c-46.32,10.647 -74.595,-13.051 -74.595,-13.051c-10.778,6.637 -63.575,24.182 -63.575,24.182s37.704,43.077 92.639,27.914l18.348,-14.177c1.595,-1.233 3.134,-2.537 4.611,-3.909z" fill="#aaffaa" opacity="0.47" id="svg_12"/>
  </g>
  <path d="m346.836,41.439c26.027,34.859 41.439,78.108 41.439,124.958c0,115.465 -93.602,209.067 -209.067,209.067c-46.849,0 -90.099,-15.412 -124.958,-41.439c38.12,51.054 99.014,84.111 167.629,84.111c115.465,0 209.067,-93.602 209.067,-209.067c0,-68.617 -33.056,-129.511 -84.11,-167.63z" opacity="0.29" id="svg_13" fill="#ffaad4"/>
  <g id="svg_14"/>
  <g id="svg_15"/>
  <g id="svg_16"/>
  <g id="svg_17"/>
  <g id="svg_18"/>
  <g id="svg_19"/>
  <g id="svg_20"/>
  <g id="svg_21"/>
  <g id="svg_22"/>
  <g id="svg_23"/>
  <g id="svg_24"/>
  <g id="svg_25"/>
  <g id="svg_26"/>
  <g id="svg_27"/>
  <g id="svg_28"/>
  <text fill="#000000" stroke-width="0" stroke-dasharray="null" stroke-linejoin="null" stroke-linecap="null" x="110.55902" y="455.19902" id="svg_29" font-size="24" font-family="serif" text-anchor="middle" xml:space="preserve" transform="matrix(18.628299974775473,0,0,1,-1969.0438477205798,0) "/>
  <text xml:space="preserve" text-anchor="middle" font-family="serif" font-size="24" id="svg_30" y="420.43902" x="114.43902" stroke-width="0" stroke="#000000" fill="#000000"/>
  <text fill="#ffffaa" stroke-width="0" stroke-dasharray="null" stroke-linejoin="null" stroke-linecap="null" x="446.5527" y="335.80041" id="svg_32" font-size="24" font-family="Cursive" text-anchor="middle" xml:space="preserve" transform="matrix(1.5663716793060303,0,0,0.8273167211170218,-257.46017603203654,63.408624582984004) " font-weight="bold">M</text>
  <text fill="#d4ffaa" stroke-width="0" stroke-dasharray="null" stroke-linejoin="null" stroke-linecap="null" x="460.53235" y="364.64077" id="svg_33" font-size="24" font-family="Cursive" text-anchor="middle" xml:space="preserve" transform="matrix(1.5252331488430881,0,0,0.8496946692466736,-242.4156629755055,57.09958604071289) " font-weight="bold">A</text>
  <text fill="#aaffff" stroke-width="0" stroke-dasharray="null" stroke-linejoin="null" stroke-linecap="null" x="473.99902" y="396.87902" id="svg_34" font-size="24" font-family="Cursive" text-anchor="middle" xml:space="preserve" font-weight="bold" transform="matrix(1.2717622518539429,0,0,1.0601221323013306,-130.81955398619175,-22.28276528418064) ">K</text>
  <text fill="#aaffff" stroke-width="0" stroke-dasharray="null" stroke-linejoin="null" stroke-linecap="null" x="418.66208" y="435.50022" font-size="24" font-family="Cursive" text-anchor="middle" xml:space="preserve" id="svg_35" font-weight="bold" transform="matrix(1.2717622518539429,0,0,1.1803663969039917,-115.78345814533532,-73.8149479329586) ">K</text>
  <text fill="#ffd4aa" stroke-width="0" stroke-dasharray="null" stroke-linejoin="null" stroke-linecap="null" x="449.99902" y="417.87902" id="svg_36" font-size="24" font-family="Cursive" text-anchor="middle" xml:space="preserve" font-weight="bold" transform="matrix(1.2232558727264404,0,0,1.090183138847351,-102.00002685189247,-35.317971751093864) ">I</text>
  <text fill="#aaaaff" stroke-width="0" stroke-dasharray="null" stroke-linejoin="null" stroke-linecap="null" x="387.99902" y="446.87902" id="svg_37" font-size="24" font-family="Cursive" text-anchor="middle" xml:space="preserve" font-weight="bold" transform="matrix(1.3648208379745483,0,0,1.1202442646026611,-145.05048504844308,-50.57774379849434) ">O</text>
 </g>
</svg>